<?xml version="1.0" encoding="UTF-8" standalone="no"?>
<!DOCTYPE svg PUBLIC "-//W3C//DTD SVG 1.1//EN" "http://www.w3.org/Graphics/SVG/1.1/DTD/svg11.dtd">
<svg version="1.1" xmlns="http://www.w3.org/2000/svg" xmlns:xlink="http://www.w3.org/1999/xlink" preserveAspectRatio="xMidYMid meet" viewBox="0 0 1200 800" width="1200" height="800"><defs><path d="M642.83 237.9L471.4 262.39L447.93 373.61L577.52 551.59L561.2 558.74L427.52 379.72L452.01 267.86L414.26 272.96L427.52 232.14L431.6 254.59L452.01 251.53L496.04 29.53L642.83 237.9Z" id="a4LjnKhBJf"></path><path d="M475.34 247.67L589.94 226.3L500.59 119.47L475.34 247.67Z" id="b1KfvujGYa"></path><path d="M519.02 282.09L502.96 376.95L577.29 472.13L622.38 268.18L637.5 262.35L582.59 536.54L479.65 394.75L502.96 282.09L519.02 282.09Z" id="dxucyTEXo"></path><path d="M582.04 609.71L681.1 739.85L681.1 724.31L598.06 604.22L675.28 289.56L648.08 252.65L582.04 609.71Z" id="bhGID89F2"></path><path d="M605.46 606.5L736.01 410.98L684.44 340.66L668.82 370.35L683.66 299.26L762.28 416.9L626.98 596.58L691.83 708.87L695.73 662.77L712.92 663.56L702.77 670.59L700.12 739.25L605.46 606.5Z" id="c1fmFlnkfd"></path></defs><g><g><g><g><g><use xlink:href="#a4LjnKhBJf" opacity="1" fill-opacity="0" stroke="#000000" stroke-width="1" stroke-opacity="1"></use></g></g><g><g><use xlink:href="#b1KfvujGYa" opacity="1" fill-opacity="0" stroke="#000000" stroke-width="1" stroke-opacity="1"></use></g></g><g><g><use xlink:href="#dxucyTEXo" opacity="1" fill-opacity="0" stroke="#000000" stroke-width="1" stroke-opacity="1"></use></g></g><g><g><use xlink:href="#bhGID89F2" opacity="1" fill-opacity="0" stroke="#000000" stroke-width="1" stroke-opacity="1"></use></g></g><g><g><use xlink:href="#c1fmFlnkfd" opacity="1" fill-opacity="0" stroke="#000000" stroke-width="1" stroke-opacity="1"></use></g></g></g></g></g></svg>